<?xml version="1.0" encoding="UTF-8"?><svg xmlns="http://www.w3.org/2000/svg" xmlns:xlink="http://www.w3.org/1999/xlink" height="608.7" preserveAspectRatio="xMidYMid meet" version="1.0" viewBox="-42.1 0.0 885.2 608.7" width="885.2" zoomAndPan="magnify"><defs><clipPath id="a"><path d="M 133 15 L 841.160156 15 L 841.160156 563 L 133 563 Z M 133 15"/></clipPath><clipPath id="b"><path d="M 578 582 L 607 582 L 607 600.589844 L 578 600.589844 Z M 578 582"/></clipPath><clipPath id="c"><path d="M 568 594 L 582 594 L 582 600.589844 L 568 600.589844 Z M 568 594"/></clipPath><clipPath id="d"><path d="M 683 522 L 774 522 L 774 600.589844 L 683 600.589844 Z M 683 522"/></clipPath><clipPath id="e"><path d="M 668 522 L 774 522 L 774 600.589844 L 668 600.589844 Z M 668 522"/></clipPath><clipPath id="f"><path d="M 563 522 L 654 522 L 654 600.589844 L 563 600.589844 Z M 563 522"/></clipPath><clipPath id="g"><path d="M 563 522 L 669 522 L 669 600.589844 L 563 600.589844 Z M 563 522"/></clipPath><clipPath id="h"><path d="M 556 345 L 822 345 L 822 600.589844 L 556 600.589844 Z M 556 345"/></clipPath><clipPath id="i"><path d="M 760 373 L 841.160156 373 L 841.160156 581 L 760 581 Z M 760 373"/></clipPath><clipPath id="j"><path d="M 771 373 L 841.160156 373 L 841.160156 557 L 771 557 Z M 771 373"/></clipPath><clipPath id="k"><path d="M 748 308 L 841.160156 308 L 841.160156 581 L 748 581 Z M 748 308"/></clipPath><clipPath id="l"><path d="M 762 308 L 841.160156 308 L 841.160156 581 L 762 581 Z M 762 308"/></clipPath><clipPath id="m"><path d="M 424 500 L 514 500 L 514 600.589844 L 424 600.589844 Z M 424 500"/></clipPath><clipPath id="n"><path d="M 424 500 L 530 500 L 530 600.589844 L 424 600.589844 Z M 424 500"/></clipPath></defs><g><g clip-path="url(#a)"><path d="M 7902.226562 3867.61875 C 8787.460938 2913.673438 8418.515625 2016.99375 7469.804688 1573.907813 C 6780.273438 1251.8375 5924.6875 1553.009375 5249.453125 1191.876563 C 4574.257812 830.782813 3301.445312 528.946875 2358.984375 1029.3375 C 1197.460938 1646.05625 2313.125 2378.634375 2209.960938 2998.4 C 2106.796875 3618.165625 1226.5625 4711.05625 2100.78125 5303.985938 C 2939.414062 5872.735938 4020.546875 4783.517188 5200.664062 4661.68125 C 6380.742188 4539.884375 7071.09375 4763.24375 7902.226562 3867.61875 Z M 7902.226562 3867.61875" fill="none" stroke="#8fb1ed" stroke-miterlimit="22.926" stroke-width="11.779" transform="matrix(.1 0 0 -.1 0 600.59)"/></g><g id="change1_1"><path d="M 501.113281 230.488281 C 572.839844 338.554688 542.945312 440.136719 466.074219 490.335938 C 410.207031 526.816406 340.886719 492.699219 286.175781 533.609375 C 231.46875 574.519531 128.339844 608.714844 51.980469 552.023438 C -42.128906 482.160156 48.261719 399.171875 39.90625 328.960938 C 31.546875 258.746094 -39.777344 134.9375 31.058594 67.769531 C 99.007812 3.339844 186.605469 126.730469 282.222656 140.53125 C 377.835938 154.328125 433.769531 129.023438 501.113281 230.488281" fill="#e6e7f5" fill-rule="evenodd"/></g><path d="M 1148.671875 187.735938 L 3455.585938 187.735938 L 3455.585938 5583.751563 L 1148.671875 5583.751563 Z M 1148.671875 187.735938" fill="none" stroke="#fff" stroke-miterlimit="22.926" stroke-width="11.779" transform="matrix(.1 0 0 -.1 0 600.59)"/><path d="M 1148.671875 4431.173438 L 3455.585938 4431.173438 L 3455.585938 5583.751563 L 1148.671875 5583.751563 Z M 1148.671875 4431.173438" fill="none" stroke="#fff" stroke-miterlimit="22.926" stroke-width="11.779" transform="matrix(.1 0 0 -.1 0 600.59)"/><path d="M 1148.671875 3278.634375 L 3455.585938 3278.634375 L 3455.585938 4431.173438 L 1148.671875 4431.173438 Z M 1148.671875 3278.634375" fill="none" stroke="#fff" stroke-miterlimit="22.926" stroke-width="11.779" transform="matrix(.1 0 0 -.1 0 600.59)"/><path d="M 469.804688 187.735938 L 1148.671875 187.735938 L 1148.671875 5583.751563 L 469.804688 5583.751563 Z M 469.804688 187.735938" fill="none" stroke="#fff" stroke-miterlimit="22.926" stroke-width="11.779" transform="matrix(.1 0 0 -.1 0 600.59)"/><g id="change2_1"><path d="M 107.328125 291.15625 L 192.601562 290.59375 C 199.46875 290.550781 204.183594 296.507812 206.273438 303.078125 L 228.78125 373.769531 C 230.875 380.339844 224.351562 386.113281 217.484375 386.253906 L 109.113281 388.507812 C 102.253906 388.648438 97.609375 382.570312 95.441406 376.023438 L 78.003906 323.359375 C 72.3125 306.164062 79.617188 291.339844 107.328125 291.15625" fill="#fff" fill-rule="evenodd"/></g><path d="M 2327.8125 2451.525 C 2518.945312 2460.5875 3045.390625 2443.55625 3196.875 2435.5875 C 3348.359375 2427.61875 3515.820312 2284.103125 3651.367188 1973.165625 C 3786.914062 1662.189063 3986.210938 832.970313 3818.789062 697.423438 C 3651.367188 561.876563 2741.953125 637.735938 2519.140625 697.423438 C 2296.367188 757.110938 2200.234375 1096.095313 2128.476562 1375.157813 C 2056.71875 1654.220313 1775.625 2425.43125 2327.8125 2451.525 Z M 2327.8125 2451.525" fill="none" stroke="#fff" stroke-miterlimit="22.926" stroke-width="11.779" transform="matrix(.1 0 0 -.1 0 600.59)"/><path d="M 1024.804688 3220.275 L 2231.640625 3228.24375" fill="none" stroke="#fff" stroke-miterlimit="22.926" stroke-width="11.779" transform="matrix(.1 0 0 -.1 0 600.59)"/><path d="M 2231.640625 3228.24375 C 2328.828125 3228.86875 2395.546875 3144.532813 2425.15625 3051.564063" fill="none" stroke="#fff" stroke-miterlimit="22.926" stroke-width="11.779" transform="matrix(.1 0 0 -.1 0 600.59)"/><path d="M 2425.15625 3051.564063 L 2743.710938 2051.05625" fill="none" stroke="#fff" stroke-miterlimit="22.926" stroke-width="11.779" transform="matrix(.1 0 0 -.1 0 600.59)"/><path d="M 2743.710938 2051.05625 C 2773.320312 1958.0875 2680.976562 1876.407813 2583.828125 1874.376563" fill="none" stroke="#fff" stroke-miterlimit="22.926" stroke-width="11.779" transform="matrix(.1 0 0 -.1 0 600.59)"/><path d="M 2583.828125 1874.376563 L 1050.078125 1842.501563" fill="none" stroke="#fff" stroke-miterlimit="22.926" stroke-width="11.779" transform="matrix(.1 0 0 -.1 0 600.59)"/><path d="M 1050.078125 1842.501563 C 952.929688 1840.470313 887.226562 1926.525 856.5625 2019.18125" fill="none" stroke="#fff" stroke-miterlimit="22.926" stroke-width="11.779" transform="matrix(.1 0 0 -.1 0 600.59)"/><path d="M 856.5625 2019.18125 L 609.804688 2764.532813" fill="none" stroke="#fff" stroke-miterlimit="22.926" stroke-width="11.779" transform="matrix(.1 0 0 -.1 0 600.59)"/><path d="M 609.804688 2764.532813 C 529.21875 3007.892188 632.617188 3217.696875 1024.804688 3220.275" fill="none" stroke="#fff" stroke-miterlimit="22.926" stroke-width="11.779" transform="matrix(.1 0 0 -.1 0 600.59)"/><path d="M 1130.742188 1799.298438 L 2502.539062 1807.892188" fill="none" stroke="#fff" stroke-miterlimit="22.926" stroke-width="11.779" transform="matrix(.1 0 0 -.1 0 600.59)"/><path d="M 2502.539062 1807.892188 C 2583.203125 1808.4 2649.179688 1741.915625 2649.179688 1661.251563" fill="none" stroke="#fff" stroke-miterlimit="22.926" stroke-width="11.779" transform="matrix(.1 0 0 -.1 0 600.59)"/><path d="M 2649.179688 1661.251563 L 2649.179688 1661.251563" fill="none" stroke="#fff" stroke-miterlimit="22.926" stroke-width="11.779" transform="matrix(.1 0 0 -.1 0 600.59)"/><path d="M 2649.179688 1661.251563 C 2649.179688 1580.626563 2583.203125 1515.11875 2502.539062 1514.610938" fill="none" stroke="#fff" stroke-miterlimit="22.926" stroke-width="11.779" transform="matrix(.1 0 0 -.1 0 600.59)"/><path d="M 2502.539062 1514.610938 L 1130.742188 1506.017188" fill="none" stroke="#fff" stroke-miterlimit="22.926" stroke-width="11.779" transform="matrix(.1 0 0 -.1 0 600.59)"/><path d="M 1130.742188 1506.017188 C 1050.117188 1505.509375 984.101562 1571.99375 984.101562 1652.657813" fill="none" stroke="#fff" stroke-miterlimit="22.926" stroke-width="11.779" transform="matrix(.1 0 0 -.1 0 600.59)"/><path d="M 984.101562 1652.657813 L 984.101562 1652.657813" fill="none" stroke="#fff" stroke-miterlimit="22.926" stroke-width="11.779" transform="matrix(.1 0 0 -.1 0 600.59)"/><path d="M 984.101562 1652.657813 C 984.101562 1733.282813 1050.078125 1798.751563 1130.742188 1799.298438" fill="none" stroke="#fff" stroke-miterlimit="22.926" stroke-width="11.779" transform="matrix(.1 0 0 -.1 0 600.59)"/><g id="change3_1"><path d="M 354.015625 570.890625 L 375.9375 570.890625 L 370.070312 552.484375 L 350.625 552.484375 L 354.015625 570.890625" fill="#f1d190" fill-rule="evenodd"/></g><g id="change4_1"><path d="M 352.460938 578.386719 L 407.503906 578.386719 C 407.503906 578.386719 407.300781 573.074219 404.519531 572.175781 C 401.734375 571.277344 381.320312 566.976562 381.320312 566.976562 C 381.320312 566.976562 375.957031 563.183594 374.441406 562.28125 C 372.929688 561.382812 371.492188 561.742188 368.660156 563.40625 L 361.925781 567.359375 L 352.574219 567.390625 L 352.460938 578.386719" fill="#2e2e6a" fill-rule="evenodd"/></g><g id="change4_2"><path d="M 296.203125 393.195312 C 318.582031 441.695312 335.722656 522.058594 351.125 563.460938 L 372.570312 555.699219 C 367.371094 522.910156 362.796875 455.785156 345.4375 407.546875 L 296.203125 393.195312" fill="#2e2e6a" fill-rule="evenodd"/></g><g id="change3_2"><path d="M 283.59375 580.660156 L 263.992188 580.269531 L 263.167969 561.863281 L 282.769531 562.253906 L 283.59375 580.660156" fill="#f1d190" fill-rule="evenodd"/></g><g id="change4_3"><path d="M 256.808594 439.109375 C 287.34375 440.128906 317.964844 440.328125 347.957031 439.9375 C 347.976562 433.246094 348.140625 426.554688 348.011719 419.863281 C 347.714844 404.160156 340.269531 398.90625 332.3125 397.742188 C 286.9375 391.109375 252.785156 384.148438 204.992188 382.625 C 206.5 422.191406 212.003906 440.917969 256.808594 439.109375" fill="#2e2e6a" fill-rule="evenodd"/></g><g id="change5_1"><path d="M 254.707031 428.460938 C 261.6875 476.957031 261.816406 550.078125 261.496094 572.054688 L 284.808594 565.3125 C 286.515625 541.070312 297.351562 478.140625 295.308594 429.902344 L 254.707031 428.460938" fill="#8fb1ed" fill-rule="evenodd"/></g><g id="change5_2"><path d="M 204.074219 439.109375 C 234.609375 440.128906 265.230469 440.328125 295.222656 439.9375 C 295.242188 433.246094 295.40625 426.554688 295.28125 419.863281 C 294.980469 404.160156 287.535156 398.90625 279.578125 397.742188 C 234.203125 391.109375 200.054688 384.148438 152.257812 382.625 C 153.765625 422.191406 159.269531 440.917969 204.074219 439.109375" fill="#8fb1ed" fill-rule="evenodd"/></g><g id="change4_4"><path d="M 262.25 586.84375 L 317.296875 586.84375 C 317.296875 586.84375 317.09375 581.53125 314.308594 580.632812 C 311.527344 579.734375 291.109375 575.433594 291.109375 575.433594 C 291.109375 575.433594 285.746094 571.640625 284.234375 570.738281 C 282.71875 569.839844 281.285156 570.203125 278.449219 571.863281 L 271.714844 575.816406 L 262.363281 575.847656 L 262.25 586.84375" fill="#2e2e6a" fill-rule="evenodd"/></g><g id="change2_2"><path d="M 105.195312 587.523438 C 113.5625 563.476562 118.441406 548.84375 118.441406 548.84375 L 133.773438 548.84375 L 113.5625 586.84375 L 105.195312 587.523438" fill="#fff" fill-rule="evenodd"/></g><g id="change2_3"><path d="M 238.671875 587.523438 C 230.304688 563.476562 225.429688 548.84375 225.429688 548.84375 L 210.09375 548.84375 L 230.304688 586.84375 L 238.671875 587.523438" fill="#fff" fill-rule="evenodd"/></g><g id="change3_3"><path d="M 294.921875 310.34375 C 295.238281 308.835938 298.328125 298.933594 298.59375 297.941406 C 298.859375 296.949219 302.8125 294.105469 303.546875 293.679688 C 304.28125 293.257812 307.476562 290.917969 308.285156 289.539062 C 309.097656 288.160156 311.136719 286.847656 312.03125 286.46875 C 313.015625 286.78125 312.679688 290.675781 311.199219 292.226562 C 309.722656 293.78125 308.351562 294.609375 307.671875 295.492188 C 306.992188 296.375 306.84375 297.929688 306.84375 297.929688 L 309.136719 298.632812 C 309.136719 298.632812 314.414062 297.121094 315.121094 297.132812 C 315.828125 297.144531 319.433594 295.269531 319.433594 295.269531 C 319.433594 295.269531 320.902344 291.761719 321.773438 291.816406 C 322.210938 291.667969 322.609375 291.507812 323.046875 292.203125 C 323.304688 290.179688 325 288.328125 326.292969 288.179688 C 326.632812 288.328125 327.0625 289.183594 327.0625 289.183594 C 327.257812 288.769531 328.617188 287.730469 329.113281 287.863281 C 329.613281 287.996094 329.738281 288.5 329.738281 288.5 C 330.632812 287.070312 331.558594 286.367188 332.640625 286.65625 C 332.476562 288.085938 332.140625 289.183594 331.316406 291.265625 C 330.496094 293.351562 327.992188 297.734375 327.992188 297.734375 L 326.410156 301.65625 C 326.410156 301.65625 321.070312 305.722656 320.355469 306.066406 C 319.644531 306.40625 318.640625 309.507812 317.46875 309.902344 C 316.300781 310.300781 304.992188 314.457031 304.042969 315.355469 C 303.09375 316.253906 302.507812 317.78125 302.25 318.421875 C 301.988281 319.0625 294.90625 310.074219 294.921875 310.34375" fill="#f1d190" fill-rule="evenodd"/></g><path d="M 3303.085938 3117.61875 L 3263.398438 3003.985938" fill="none" stroke="#2e2e6a" stroke-miterlimit="22.926" stroke-width="11.779" transform="matrix(.1 0 0 -.1 0 600.59)"/><path d="M 3270.625 3110.392188 L 3245.351562 3029.220313 L 3209.296875 2966.095313" fill="none" stroke="#2e2e6a" stroke-miterlimit="22.926" stroke-width="11.779" transform="matrix(.1 0 0 -.1 0 600.59)"/><path d="M 3070.15625 2943.24375 C 3094.0625 2956.68125 3101.523438 2958.165625 3110.46875 2958.165625 C 3119.453125 2958.165625 3150.820312 2956.68125 3150.820312 2956.68125" fill="none" stroke="#2e2e6a" stroke-miterlimit="22.926" stroke-width="11.779" transform="matrix(.1 0 0 -.1 0 600.59)"/><path d="M 3150.820312 2956.68125 L 3177.695312 2988.048438" fill="none" stroke="#2e2e6a" stroke-miterlimit="22.926" stroke-width="11.779" transform="matrix(.1 0 0 -.1 0 600.59)"/><path d="M 3177.695312 2988.048438 C 3177.695312 2988.048438 3192.65625 3040.314063 3194.140625 3047.814063 C 3195.625 3055.275 3206.054688 3082.15 3216.523438 3088.126563" fill="none" stroke="#2e2e6a" stroke-miterlimit="22.926" stroke-width="11.779" transform="matrix(.1 0 0 -.1 0 600.59)"/><g id="change2_4"><path d="M 295.027344 306.675781 L 306.347656 316.59375 L 302.914062 321.476562 L 290.539062 313.953125 L 295.027344 306.675781" fill="#fff" fill-rule="evenodd"/></g><g id="change5_3"><path d="M 224.894531 274.625 C 237.96875 283.539062 253.476562 314.855469 263.191406 347.953125 L 263.292969 348.59375 C 274.515625 331.371094 291.402344 312.128906 292.105469 311.144531 C 296.195312 314.316406 301.324219 321.636719 305.761719 324.863281 C 301.125 338.019531 279.320312 376.902344 268.6875 381.785156 C 249.78125 379.222656 242.972656 369.359375 234.71875 358.355469 C 231.175781 353.632812 192.234375 288.828125 224.894531 274.625" fill="#8fb1ed" fill-rule="evenodd"/></g><g id="change6_1"><path d="M 223.855469 389.074219 L 144.371094 389.074219 L 143.003906 336.171875 L 134.828125 273.035156 C 144.558594 267.613281 156.121094 264.050781 169.03125 262.503906 C 173.921875 261.917969 179.003906 261.621094 184.25 261.621094 C 191.199219 261.621094 193.71875 260.851562 199.816406 262.730469 C 210.675781 266.070312 215.144531 267.144531 224.894531 274.625 C 228.175781 300.921875 226.394531 318.003906 224.648438 336.988281 C 223.054688 354.332031 225.453125 371.730469 223.855469 389.074219" fill="#f56f81" fill-rule="evenodd"/></g><g id="change2_5"><path d="M 161.625 263.226562 C 179.714844 290.464844 194.96875 287.945312 207.398438 264.535156 L 198.644531 261.53125 L 171.996094 261.53125 C 168.511719 262.242188 164.765625 262.253906 161.625 263.226562" fill="#fff" fill-rule="evenodd"/></g><g id="change3_4"><path d="M 199.578125 264.511719 L 185.914062 276.363281 L 168.753906 262.324219 L 168.707031 229.53125 L 197.253906 233.554688 L 199.578125 264.511719" fill="#f1d190" fill-rule="evenodd"/></g><path d="M 1859.140625 3242.267188 L 1761.40625 3190.392188 L 1653.632812 3371.720313 L 1686.445312 3383.673438 Z M 1859.140625 3242.267188" fill="none" stroke="#2e2e6a" stroke-miterlimit="22.926" stroke-width="11.779" transform="matrix(.1 0 0 -.1 0 600.59)"/><g id="change3_5"><path d="M 186.972656 186.601562 C 181.484375 186.871094 164.949219 187.878906 165.207031 209.328125 C 165.460938 230.777344 168.917969 237.71875 171.605469 240.859375 C 175.042969 244.875 180.535156 249.273438 193.90625 250.691406 C 201.675781 250.0625 202.851562 245.382812 205.179688 240.757812 C 207.039062 237.066406 210.691406 229.632812 209.859375 208.195312 C 209.027344 186.761719 192.46875 186.59375 186.972656 186.601562" fill="#f1d190" fill-rule="evenodd"/></g><g id="change4_5"><path d="M 164.335938 220.921875 C 162.445312 210.722656 151.0625 192.113281 164.207031 190.949219 C 165.289062 181.15625 175.082031 180.285156 177.0625 180.8125 C 183.847656 182.613281 190.339844 185.0625 194.480469 185.269531 C 198.757812 185.488281 202.464844 184.53125 204.886719 183.996094 C 208.289062 183.242188 210.621094 186.867188 207.410156 189.054688 C 208.914062 188.804688 213.351562 186.816406 215.285156 191.335938 C 217.605469 196.746094 204.519531 202.355469 196.730469 202.097656 C 183.511719 201.660156 180.152344 199.425781 171.070312 197.0625 C 169.179688 197.378906 176.609375 210.871094 170.933594 213.078125 C 165.257812 215.285156 164.652344 220.921875 164.335938 220.921875" fill="#2e2e6a" fill-rule="evenodd"/></g><path d="M 2122.265625 3984.610938 C 2122.265625 3984.610938 1980.273438 3928.282813 1829.296875 4009.415625" fill="none" stroke="#2e2e6a" stroke-miterlimit="22.926" stroke-width="11.779" transform="matrix(.1 0 0 -.1 0 600.59)"/><g id="change4_6"><path d="M 186.8125 217.710938 C 187.863281 217.691406 188.777344 218.722656 188.855469 220.011719 C 188.933594 221.304688 188.144531 222.363281 187.09375 222.382812 C 186.042969 222.402344 185.128906 221.371094 185.050781 220.082031 C 184.972656 218.789062 185.761719 217.730469 186.8125 217.710938" fill="#2e2e6a" fill-rule="evenodd"/></g><g id="change4_7"><path d="M 204.136719 217.710938 C 203.085938 217.746094 202.226562 218.824219 202.210938 220.113281 C 202.199219 221.40625 203.039062 222.425781 204.09375 222.390625 C 205.144531 222.355469 206.003906 221.28125 206.015625 219.988281 C 206.03125 218.695312 205.1875 217.675781 204.136719 217.710938" fill="#2e2e6a" fill-rule="evenodd"/></g><path d="M 2015.234375 3878.360938 C 2011.210938 3878.048438 1996.875 3867.345313 1995.546875 3851.99375 C 1991.796875 3809.532813 2007.773438 3728.790625 2006.679688 3713.126563 C 2005.234375 3691.759375 1972.382812 3693.0875 1972.382812 3693.0875" fill="none" stroke="#2e2e6a" stroke-miterlimit="22.926" stroke-width="11.779" transform="matrix(.1 0 0 -.1 0 600.59)"/><path d="M 1925.507812 3634.49375 C 1925.507812 3634.49375 1963.164062 3607.696875 2025.078125 3638.048438" fill="none" stroke="#2e2e6a" stroke-miterlimit="22.926" stroke-width="11.779" transform="matrix(.1 0 0 -.1 0 600.59)"/><path d="M 1833.59375 3875.040625 C 1846.484375 3880.001563 1883.710938 3878.595313 1905.9375 3873.673438" fill="none" stroke="#2e2e6a" stroke-miterlimit="22.926" stroke-width="11.779" transform="matrix(.1 0 0 -.1 0 600.59)"/><path d="M 2085.117188 3873.673438 C 2072.578125 3879.49375 2035.3125 3880.509375 2012.851562 3876.99375" fill="none" stroke="#2e2e6a" stroke-miterlimit="22.926" stroke-width="11.779" transform="matrix(.1 0 0 -.1 0 600.59)"/><g id="change4_8"><path d="M 195.0625 217.835938 C 195.0625 217.835938 194.949219 218.875 194.730469 219.566406 C 194.511719 220.261719 193.738281 225.554688 192.253906 225.605469 C 190.765625 225.851562 183.117188 225.753906 182.289062 225.257812 C 181.464844 224.765625 179.261719 220.113281 180.253906 217.734375 C 184.878906 216.203125 194.015625 217.6875 195.0625 217.835938 Z M 201.117188 217.835938 C 202.164062 217.6875 205.949219 216.203125 210.574219 217.734375 C 211.566406 220.113281 209.363281 224.765625 208.535156 225.257812 C 207.710938 225.753906 205.410156 225.851562 203.925781 225.605469 C 202.4375 225.554688 201.667969 220.261719 201.449219 219.566406 C 201.226562 218.875 201.117188 217.835938 201.117188 217.835938 Z M 196.703125 217.03125 C 195.214844 216.8125 184.21875 215.058594 178.621094 216.914062 C 177.40625 219.824219 180.101562 225.519531 181.113281 226.128906 C 182.125 226.734375 191.492188 226.855469 193.3125 226.550781 C 195.132812 226.492188 196.078125 220.007812 196.347656 219.15625 C 196.421875 218.917969 196.488281 218.648438 196.542969 218.378906 C 197.964844 218.054688 198.21875 217.949219 199.632812 218.371094 C 199.6875 218.640625 199.753906 218.917969 199.832031 219.15625 C 200.101562 220.007812 201.042969 226.492188 202.863281 226.550781 C 204.683594 226.855469 208.703125 226.734375 209.714844 226.128906 C 210.726562 225.519531 213.421875 219.824219 212.207031 216.914062 C 206.714844 215.09375 201.367188 216.75 199.566406 217.015625 C 198.074219 216.703125 198.199219 216.773438 196.703125 217.03125" fill="#2e2e6a" fill-rule="evenodd"/></g><g id="change3_6"><path d="M 167.101562 218.570312 C 166.375 217.300781 165.5 216.273438 163.808594 215.960938 C 162.117188 215.652344 159.085938 216.585938 159.214844 221.351562 C 159.34375 226.117188 163.421875 230.113281 165.921875 229.480469 C 168.421875 228.851562 167.101562 218.570312 167.101562 218.570312" fill="#f1d190" fill-rule="evenodd"/></g><path d="M 1653.007812 3796.485938 C 1652.851562 3802.423438 1628.984375 3829.454688 1609.648438 3810.157813" fill="none" stroke="#2e2e6a" stroke-miterlimit="22.926" stroke-width="8.835" transform="matrix(.1 0 0 -.1 0 600.59)"/><g id="change5_4"><path d="M 162.023438 262.570312 C 162.023438 262.570312 172.605469 337.574219 169.714844 423.128906 C 152.917969 420.441406 138.476562 417.234375 138.476562 417.234375 L 143.003906 336.171875 L 134.828125 273.035156 C 134.828125 273.035156 143.839844 266.558594 162.023438 262.570312" fill="#8fb1ed" fill-rule="evenodd"/></g><g id="change5_5"><path d="M 208.511719 264.867188 C 208.511719 264.867188 211.046875 395.019531 211.625 420.976562 C 221.476562 418.171875 231.234375 411.75 231.234375 411.75 L 225.238281 339.847656 C 225.238281 339.847656 228.699219 282.171875 225.238281 274.09375 C 219.300781 268.9375 213.660156 266.324219 208.511719 264.867188" fill="#8fb1ed" fill-rule="evenodd"/></g><path d="M 1859.140625 3242.267188 L 1956.875 3190.392188 L 2047.226562 3368.24375 L 2014.414062 3380.157813 Z M 1859.140625 3242.267188" fill="none" stroke="#2e2e6a" stroke-miterlimit="22.926" stroke-width="11.779" transform="matrix(.1 0 0 -.1 0 600.59)"/><path d="M 2638.28125 2520.74375 C 2703.4375 2490.821875 2756.210938 2362.30625 2735.117188 2307.775 C 2713.984375 2253.204688 2685.820312 2371.134375 2664.6875 2411.603125 C 2643.554688 2452.071875 2622.460938 2418.634375 2633.007812 2358.790625" fill="none" stroke="#2e2e6a" stroke-miterlimit="22.926" stroke-width="11.779" transform="matrix(.1 0 0 -.1 0 600.59)"/><g id="change5_6"><path d="M 140.648438 272.222656 C 127.359375 273.101562 124.609375 280.84375 110.445312 308.351562 C 96.28125 335.855469 97.867188 349.976562 95.820312 353.738281 C 93.035156 369.742188 105.4375 377.597656 122.730469 354.695312 C 133.210938 340.8125 142.746094 322.351562 144.949219 317.867188 C 149.160156 309.3125 160.886719 277.449219 140.648438 272.222656" fill="#8fb1ed" fill-rule="evenodd"/></g><path d="M 1414.960938 2760.43125 C 1443.984375 2896.876563 1433.203125 3065.001563 1355.15625 3222.4625" fill="none" stroke="#2e2e6a" stroke-miterlimit="22.926" stroke-width="11.779" transform="matrix(.1 0 0 -.1 0 600.59)"/><path d="M 2254.84375 3195.43125 C 2263.046875 3110.704688 2221.210938 2484.49375 2292.1875 2130.079688" fill="none" stroke="#2e2e6a" stroke-miterlimit="22.926" stroke-width="11.779" transform="matrix(.1 0 0 -.1 0 600.59)"/><path d="M 1673.632812 3691.485938 C 1686.171875 3640.001563 1702.148438 3613.55625 1716.054688 3597.30625 C 1750.429688 3557.15 1805.351562 3513.165625 1939.0625 3498.985938 C 1953.671875 3500.157813 1966.015625 3502.775 1976.484375 3506.564063" fill="none" stroke="#2e2e6a" stroke-miterlimit="22.926" stroke-width="11.779" transform="matrix(.1 0 0 -.1 0 600.59)"/><path d="M 1659.375 3020.548438 C 1683.476562 2779.689063 1781.71875 2067.970313 1612.265625 1854.18125" fill="none" stroke="#2e2e6a" stroke-miterlimit="22.926" stroke-width="11.779" transform="matrix(.1 0 0 -.1 0 600.59)"/><path d="M 904.609375 2279.9625 C 1095.742188 2288.985938 1622.226562 2271.99375 1773.671875 2264.025 C 1925.195312 2256.05625 2092.617188 2112.501563 2228.164062 1801.564063 C 2363.710938 1490.626563 2566.992188 633.634375 2399.570312 498.0875 C 2232.148438 362.540625 1322.734375 438.4 1099.921875 498.0875 C 877.148438 557.775 781.015625 896.759375 709.21875 1175.821875 C 637.460938 1454.884375 352.421875 2253.86875 904.609375 2279.9625 Z M 904.609375 2279.9625" fill="none" stroke="#fff" stroke-miterlimit="22.926" stroke-width="11.779" transform="matrix(.1 0 0 -.1 0 600.59)"/><g id="change3_7"><path d="M 175.921875 369.492188 C 177.992188 372.386719 177.871094 372.363281 179.707031 374.527344 C 181.296875 375.316406 185.410156 379.019531 187.636719 380.039062 C 190.203125 380.8125 192.957031 381.820312 192.957031 381.820312 C 194.8125 383.859375 196.03125 384.472656 197.351562 386.015625 C 197.628906 387.386719 199.390625 390.425781 199.390625 390.425781 C 199.167969 390.726562 199.714844 393.714844 200.292969 394.507812 C 201.542969 394.054688 201.789062 394.195312 201.789062 394.195312 C 201.894531 394.609375 202.9375 396.257812 203.253906 396.40625 L 205.269531 393.285156 L 205.8125 389.652344 L 206.71875 388.382812 L 206.636719 380.703125 L 206.199219 376.859375 L 201.386719 369.164062 C 201.386719 369.164062 189.929688 362.597656 188.953125 361.84375 C 187.976562 361.089844 185.347656 360.253906 183.699219 358.984375 L 175.921875 369.492188" fill="#f1d190" fill-rule="evenodd"/></g><path d="M 2019.414062 2064.142188 L 2019.960938 2106.99375 L 2010.234375 2153.985938 L 1967.578125 2208.595313" fill="none" stroke="#2e2e6a" stroke-miterlimit="22.926" stroke-width="11.779" transform="matrix(.1 0 0 -.1 0 600.59)"/><path d="M 2052.265625 2169.689063 L 2004.335938 2226.446875" fill="none" stroke="#2e2e6a" stroke-miterlimit="22.926" stroke-width="11.779" transform="matrix(.1 0 0 -.1 0 600.59)"/><g id="change2_6"><path d="M 185.03125 358.613281 L 177.898438 372.542969 L 172.101562 370.046875 L 175.546875 354.699219 L 185.03125 358.613281" fill="#fff" fill-rule="evenodd"/></g><g id="change5_7"><path d="M 124.3125 345.367188 L 181.703125 354.726562 C 178.601562 363.011719 175.414062 365.082031 173.730469 373.078125 C 152.847656 372.949219 131.964844 372.824219 111.085938 372.695312 C 104.949219 372.65625 96.925781 371.109375 96.839844 364.644531 L 124.3125 345.367188" fill="#8fb1ed" fill-rule="evenodd"/></g><path d="M 1288.828125 2542.657813 C 1203.945312 2563.165625 1042.929688 2542.657813 1040 2475.314063 C 1037.070312 2408.009375 1069.257812 2469.454688 1157.109375 2487.032813 C 1244.921875 2504.610938 1268.320312 2481.173438 1221.484375 2460.704688" fill="none" stroke="#2e2e6a" stroke-miterlimit="22.926" stroke-width="11.779" transform="matrix(.1 0 0 -.1 0 600.59)"/><g id="change2_7"><path d="M 105.164062 409.542969 C 118.570312 408.910156 155.480469 410.101562 166.101562 410.660156 C 176.722656 411.21875 188.464844 421.28125 197.96875 443.085938 C 207.46875 464.886719 221.445312 523.027344 209.707031 532.53125 C 197.96875 542.035156 134.203125 536.71875 118.582031 532.53125 C 102.964844 528.347656 96.222656 504.578125 91.191406 485.015625 C 86.160156 465.445312 66.449219 411.371094 105.164062 409.542969" fill="#fff" fill-rule="evenodd"/></g><path d="M 3063.4375 3315.235938 L 3263.242188 3278.634375 L 3431.601562 4197.892188 L 3231.796875 4234.49375 Z M 3063.4375 3315.235938" fill="none" stroke="#fff" stroke-miterlimit="22.926" stroke-width="11.779" transform="matrix(.1 0 0 -.1 0 600.59)"/><path d="M 2856.640625 3315.235938 L 3056.484375 3278.634375 L 3224.84375 4197.892188 L 3025 4234.49375 Z M 2856.640625 3315.235938" fill="none" stroke="#fff" stroke-miterlimit="22.926" stroke-width="11.779" transform="matrix(.1 0 0 -.1 0 600.59)"/><path d="M 2667.382812 3305.665625 L 2765.273438 3278.634375 L 3046.25 4296.290625 L 2948.320312 4323.321875 Z M 2667.382812 3305.665625" fill="none" stroke="#fff" stroke-miterlimit="22.926" stroke-width="11.779" transform="matrix(.1 0 0 -.1 0 600.59)"/><path d="M 3761.5625 4781.446875 L 3761.5625 800.157813" fill="none" stroke="#fff" stroke-miterlimit="22.926" stroke-width="11.779" transform="matrix(.1 0 0 -.1 0 600.59)"/><path d="M 7034.140625 4940.860938 C 7039.023438 4487.970313 6896.40625 4411.290625 6699.726562 4478.634375 C 6503.007812 4545.978125 5940.273438 4670.314063 6141.328125 5090.43125 C 6342.34375 5510.548438 6657.34375 5733.634375 6784.648438 5503.478125 C 6911.914062 5273.282813 6865.625 4545.353125 6643.554688 4656.485938 C 6421.523438 4767.61875 6022.65625 4992.579688 6402.304688 5083.673438 C 6781.953125 5174.767188 7262.851562 4616.525 7157.34375 4778.4 C 7020.351562 4988.439063 5885.898438 3035.001563 6244.257812 5074.064063 C 6281.679688 5286.8375 6411.835938 5299.49375 6671.445312 5315.314063 C 6931.09375 5331.095313 7282.773438 5137.267188 7190.78125 4973.048438 C 7098.828125 4808.829688 6890.625 4320.314063 6590.9375 4404.025 C 6291.289062 4487.775 5976.992188 4253.360938 6104.492188 4578.360938 C 6231.992188 4903.360938 6598.320312 5027.61875 6585.273438 5242.071875 C 6535.664062 6057.228125 5744.414062 5229.532813 6225.117188 5016.2125 C 6539.53125 4876.759375 6730.429688 4718.439063 6757.421875 4833.360938 C 6784.414062 4948.321875 7223.28125 4997.696875 7081.953125 5272.30625 C 6940.585938 5546.954688 6644.0625 5392.93125 6644.0625 5392.93125 C 6644.0625 5392.93125 6425 4711.173438 6481.796875 4522.032813 C 6538.632812 4332.853125 6670.742188 4023.673438 6776.757812 4143.439063 C 7386.25 4831.915625 7155.78125 3779.142188 6739.648438 4752.970313 C 6475.429688 5371.36875 6336.132812 5612.15 6612.578125 5538.321875 C 6888.984375 5464.49375 7115.117188 5285.665625 6871.601562 5191.525 C 6628.085938 5097.423438 6361.5625 5194.49375 6210.429688 5071.99375 C 6059.257812 4949.49375 6084.6875 4531.8375 6159.960938 4411.798438 C 6235.234375 4291.759375 6270.585938 3897.345313 6471.992188 4124.884375 C 6673.398438 4352.423438 7090.351562 4389.103125 6986.328125 4609.376563 C 6882.265625 4829.65 7226.015625 4952.540625 7114.804688 5104.376563 C 7003.59375 5256.2125 6941.679688 5343.0875 6752.8125 5467.540625 C 6563.984375 5592.032813 6268.828125 5415.43125 6102.265625 5359.9625 C 5935.664062 5304.532813 5762.617188 5169.376563 5940.898438 5032.93125 C 6119.101562 4896.485938 6237.5 4813.048438 6233.085938 4699.49375 C 6228.671875 4585.939063 5962.65625 4116.525 5995.078125 4515.040625 C 6027.421875 4913.55625 6331.445312 5317.267188 6524.414062 5125.079688 C 6717.382812 4932.892188 6857.382812 4680.821875 6663.789062 4510.43125 C 6470.234375 4340.040625 6404.257812 4120.74375 6404.257812 4120.74375" fill="none" stroke="#8fb1ed" stroke-miterlimit="22.926" stroke-width="11.779" transform="matrix(.1 0 0 -.1 0 600.59)"/><path d="M 6445.585938 4332.696875 C 6819.101562 4327.267188 6868.046875 4467.501563 6793.007812 4661.173438 C 6717.96875 4854.845313 6559.53125 5408.829688 6233.554688 5211.564063 C 5907.539062 5014.298438 5755.117188 4704.610938 5957.382812 4579.025 C 6159.609375 4453.4 6754.53125 4498.009375 6640.9375 4716.68125 C 6527.304688 4935.353125 6302.34375 5328.204688 6265.117188 4954.689063 C 6227.851562 4581.173438 6438.4375 4288.946875 6591.640625 4211.251563 C 6744.84375 4133.517188 7387.265625 4905.040625 7242.851562 4993.165625 C 7098.476562 5081.290625 6434.101562 5119.298438 6257.304688 5110.196875 C 6080.46875 5101.134375 6088.28125 4945.626563 6101.09375 4690.157813 C 6113.90625 4434.65 6308.554688 4088.282813 6434.6875 4178.55625 C 6560.742188 4268.86875 6942.382812 4473.0875 6843.632812 4768.126563 C 6744.84375 5063.126563 6906.601562 5372.15 6651.640625 5247.110938 C 6396.640625 5122.032813 6330.742188 4761.720313 6152.8125 4774.845313 C 5476.523438 4824.767188 6079.492188 5602.345313 6303.007812 5128.985938 C 6449.179688 4819.376563 6598.554688 4631.290625 6506.5625 4604.845313 C 6414.609375 4578.439063 6417.617188 4146.603125 6177.34375 4286.095313 C 5937.070312 4425.5875 6034.414062 4717.189063 6034.414062 4717.189063 C 6034.414062 4717.189063 6574.140625 4931.876563 6735.585938 4875.704688 C 6897.03125 4819.49375 7164.804688 4689.064063 7076.757812 4584.884375 C 6570.3125 3986.017188 7414.492188 4211.407813 6571.015625 4622.228125 C 6035.429688 4883.126563 5823.242188 5020.509375 5911.523438 4748.4 C 5999.84375 4476.251563 6169.648438 4253.478125 6222.929688 4493.009375 C 6276.25 4732.540625 6169.765625 4994.923438 6255.625 5143.55625 C 6341.445312 5292.110938 6687.96875 5266.525 6794.335938 5192.30625 C 6900.703125 5118.048438 7229.023438 5082.735938 7061.679688 4884.80625 C 6894.335938 4686.915625 6905.625 4276.603125 6713.828125 4379.298438 C 6522.070312 4481.99375 6455.078125 4143.86875 6318.945312 4253.517188 C 6182.8125 4363.165625 6105.078125 4424.220313 5983.789062 4610.275 C 5862.5 4796.290625 5978.554688 5086.525 6007.65625 5250.353125 C 6036.757812 5414.220313 6130.859375 5584.3375 6260.976562 5408.751563 C 6391.09375 5233.126563 6471.5625 5116.525 6564.6875 5120.704688 C 6657.773438 5124.923438 7017.890625 5386.05625 6692.890625 5354.728125 C 6367.890625 5323.360938 6065.625 5024.767188 6243.125 4834.571875 C 6420.625 4644.415625 6642.148438 4506.290625 6763.242188 4696.564063 C 6884.296875 4886.8375 7058.359375 4951.485938 7058.359375 4951.485938" fill="none" stroke="#8fb1ed" stroke-miterlimit="22.926" stroke-width="11.779" transform="matrix(.1 0 0 -.1 0 600.59)"/><path d="M 2102.070312 5300.626563 C 2102.070312 5326.36875 2081.835938 5347.267188 2056.875 5347.267188 C 2031.953125 5347.267188 2011.757812 5326.36875 2011.757812 5300.626563 C 2011.757812 5249.142188 2052.1875 5207.384375 2102.070312 5207.384375 C 2151.953125 5207.384375 2192.382812 5249.142188 2192.382812 5300.626563 C 2192.382812 5377.892188 2131.71875 5440.509375 2056.875 5440.509375 C 1982.070312 5440.509375 1921.40625 5377.892188 1921.40625 5300.626563 C 1921.40625 5197.61875 2002.265625 5114.142188 2102.070312 5114.142188 C 2201.835938 5114.142188 2282.734375 5197.61875 2282.734375 5300.626563 C 2282.734375 5429.376563 2181.601562 5533.751563 2056.875 5533.751563 C 1932.1875 5533.751563 1831.054688 5429.376563 1831.054688 5300.626563 C 1831.054688 5146.134375 1952.382812 5020.860938 2102.070312 5020.860938 C 2251.757812 5020.860938 2373.085938 5146.134375 2373.085938 5300.626563 C 2373.085938 5480.860938 2231.523438 5626.99375 2056.875 5626.99375 C 1882.265625 5626.99375 1740.703125 5480.860938 1740.703125 5300.626563 C 1740.703125 5094.610938 1902.5 4927.657813 2102.070312 4927.657813 C 2301.601562 4927.657813 2463.398438 5094.610938 2463.398438 5300.626563 C 2463.398438 5532.384375 2281.40625 5720.235938 2056.875 5720.235938 C 1832.382812 5720.235938 1650.390625 5532.384375 1650.390625 5300.626563 C 1650.390625 5043.126563 1852.617188 4834.376563 2102.070312 4834.376563 C 2351.523438 4834.376563 2553.75 5043.126563 2553.75 5300.626563 C 2553.75 5583.86875 2331.289062 5813.517188 2056.875 5813.517188 C 1782.5 5813.517188 1560.039062 5583.86875 1560.039062 5300.626563 C 1560.039062 4991.642188 1802.734375 4741.134375 2102.070312 4741.134375 C 2401.40625 4741.134375 2644.0625 4991.642188 2644.0625 5300.626563 C 2644.0625 5635.392188 2381.171875 5906.759375 2056.875 5906.759375 C 1732.617188 5906.759375 1469.726562 5635.392188 1469.726562 5300.626563 C 1469.726562 4940.11875 1752.8125 4647.892188 2102.070312 4647.892188 C 2451.289062 4647.892188 2734.414062 4940.11875 2734.414062 5300.626563 C 2734.414062 5686.876563 2431.09375 6000.001563 2056.875 6000.001563 C 1682.734375 6000.001563 1379.375 5686.876563 1379.375 5300.626563 C 1379.375 4888.634375 1702.929688 4554.65 2102.070312 4554.65 C 2501.171875 4554.65 2824.726562 4888.634375 2824.726562 5300.626563" fill="none" stroke="#8fb1ed" stroke-miterlimit="22.926" stroke-width="11.779" transform="matrix(.1 0 0 -.1 0 600.59)"/><g id="change1_2"><path d="M 733.195312 302.933594 L 647.921875 302.367188 C 641.054688 302.324219 636.339844 308.28125 634.25 314.851562 L 611.742188 385.546875 C 609.648438 392.117188 616.171875 397.886719 623.035156 398.027344 L 731.410156 400.28125 C 738.273438 400.425781 742.914062 394.347656 745.082031 387.796875 L 762.519531 335.132812 C 768.210938 317.9375 760.90625 303.113281 733.195312 302.933594" fill="#e6e7f5" fill-rule="evenodd"/></g><path d="M 6077.421875 2333.790625 C 5886.289062 2342.814063 5359.84375 2325.821875 5208.359375 2317.853125 C 5056.875 2309.884375 4889.414062 2166.36875 4753.867188 1855.392188 C 4618.320312 1544.454688 4418.984375 715.235938 4586.445312 579.689063 C 4753.867188 444.142188 5663.28125 519.9625 5886.054688 579.689063 C 6108.867188 639.376563 6205 978.321875 6276.757812 1257.384375 C 6348.515625 1536.485938 6629.609375 2307.696875 6077.421875 2333.790625 Z M 6077.421875 2333.790625" fill="none" stroke="#8fb1ed" stroke-miterlimit="22.926" stroke-width="11.779" transform="matrix(.1 0 0 -.1 0 600.59)"/><path d="M 7380.429688 3102.501563 L 6173.59375 3110.509375" fill="none" stroke="#8fb1ed" stroke-miterlimit="22.926" stroke-width="11.779" transform="matrix(.1 0 0 -.1 0 600.59)"/><path d="M 6173.59375 3110.509375 C 6076.40625 3111.134375 6009.6875 3026.798438 5980.078125 2933.790625" fill="none" stroke="#8fb1ed" stroke-miterlimit="22.926" stroke-width="11.779" transform="matrix(.1 0 0 -.1 0 600.59)"/><path d="M 5980.078125 2933.790625 L 5661.523438 1933.321875" fill="none" stroke="#8fb1ed" stroke-miterlimit="22.926" stroke-width="11.779" transform="matrix(.1 0 0 -.1 0 600.59)"/><path d="M 5661.523438 1933.321875 C 5631.914062 1840.314063 5724.257812 1758.634375 5821.40625 1756.642188" fill="none" stroke="#8fb1ed" stroke-miterlimit="22.926" stroke-width="11.779" transform="matrix(.1 0 0 -.1 0 600.59)"/><path d="M 5821.40625 1756.642188 L 7355.15625 1724.728125" fill="none" stroke="#8fb1ed" stroke-miterlimit="22.926" stroke-width="11.779" transform="matrix(.1 0 0 -.1 0 600.59)"/><path d="M 7355.15625 1724.728125 C 7452.304688 1722.735938 7518.007812 1808.751563 7548.671875 1901.446875" fill="none" stroke="#8fb1ed" stroke-miterlimit="22.926" stroke-width="11.779" transform="matrix(.1 0 0 -.1 0 600.59)"/><path d="M 7548.671875 1901.446875 L 7795.46875 2646.759375" fill="none" stroke="#8fb1ed" stroke-miterlimit="22.926" stroke-width="11.779" transform="matrix(.1 0 0 -.1 0 600.59)"/><path d="M 7795.46875 2646.759375 C 7876.015625 2890.157813 7772.617188 3099.923438 7380.429688 3102.501563" fill="none" stroke="#8fb1ed" stroke-miterlimit="22.926" stroke-width="11.779" transform="matrix(.1 0 0 -.1 0 600.59)"/><path d="M 7274.492188 1681.525 L 5902.695312 1690.157813" fill="none" stroke="#8fb1ed" stroke-miterlimit="22.926" stroke-width="11.779" transform="matrix(.1 0 0 -.1 0 600.59)"/><path d="M 5902.695312 1690.157813 C 5822.03125 1690.665625 5756.054688 1624.142188 5756.054688 1543.517188" fill="none" stroke="#8fb1ed" stroke-miterlimit="22.926" stroke-width="11.779" transform="matrix(.1 0 0 -.1 0 600.59)"/><path d="M 5756.054688 1543.517188 L 5756.054688 1543.517188" fill="none" stroke="#8fb1ed" stroke-miterlimit="22.926" stroke-width="11.779" transform="matrix(.1 0 0 -.1 0 600.59)"/><path d="M 5756.054688 1543.517188 C 5756.054688 1462.853125 5822.03125 1397.384375 5902.695312 1396.876563" fill="none" stroke="#8fb1ed" stroke-miterlimit="22.926" stroke-width="11.779" transform="matrix(.1 0 0 -.1 0 600.59)"/><path d="M 5902.695312 1396.876563 L 7274.492188 1388.24375" fill="none" stroke="#8fb1ed" stroke-miterlimit="22.926" stroke-width="11.779" transform="matrix(.1 0 0 -.1 0 600.59)"/><path d="M 7274.492188 1388.24375 C 7355.117188 1387.735938 7421.132812 1454.259375 7421.132812 1534.884375" fill="none" stroke="#8fb1ed" stroke-miterlimit="22.926" stroke-width="11.779" transform="matrix(.1 0 0 -.1 0 600.59)"/><path d="M 7421.132812 1534.884375 L 7421.132812 1534.884375" fill="none" stroke="#8fb1ed" stroke-miterlimit="22.926" stroke-width="11.779" transform="matrix(.1 0 0 -.1 0 600.59)"/><path d="M 7421.132812 1534.884375 C 7421.132812 1615.548438 7355.15625 1681.017188 7274.492188 1681.525" fill="none" stroke="#8fb1ed" stroke-miterlimit="22.926" stroke-width="11.779" transform="matrix(.1 0 0 -.1 0 600.59)"/><g id="change3_8"><path d="M 603.835938 582.910156 L 602.453125 589.523438 L 579.773438 599.070312 L 578.742188 594.976562 L 589.976562 582.671875 L 570.441406 536.726562 L 594.132812 548.042969 L 603.835938 582.910156" fill="#f1d190" fill-rule="evenodd"/></g><g id="change3_9"><path d="M 599.753906 296.554688 C 595.402344 300.335938 593.070312 308.1875 582.894531 332.621094 C 572.714844 357.0625 569.5 367.699219 567.832031 371.046875 C 571.980469 376.050781 572.070312 375.445312 580.1875 380.671875 C 590.203125 372.339844 599.695312 347.949219 604.9375 336.234375 C 608.339844 328.636719 617.570312 300.472656 599.753906 296.554688" fill="#f1d190" fill-rule="evenodd"/></g><g id="change3_10"><path d="M 573.070312 577.722656 L 572.730469 584.464844 L 551.8125 597.417969 L 550.15625 593.535156 L 559.34375 579.636719 L 532.910156 537.277344 L 552.46875 532.734375 L 573.070312 577.722656" fill="#f1d190" fill-rule="evenodd"/></g><g id="change4_9"><path d="M 577.3125 584.925781 L 554.089844 598.597656 L 550.15625 593.535156 C 552.386719 595.050781 569.519531 584.964844 571.128906 581.6875 L 573.070312 577.722656 L 577.3125 584.925781" fill="#2e2e6a" fill-rule="evenodd"/></g><g id="change4_10"><path d="M 554.089844 598.597656 L 540.371094 598.65625 C 540.371094 598.65625 539.515625 596.6875 542.113281 595.917969 L 550.15625 593.535156 L 554.089844 598.597656" fill="#2e2e6a" fill-rule="evenodd"/></g><g id="change6_2"><path d="M 515.128906 434.285156 C 527.019531 462.367188 537.257812 492.292969 553.382812 534.46875 L 532.714844 542.75 L 481.175781 451.976562 L 515.128906 434.285156" fill="#f56f81" fill-rule="evenodd"/></g><g id="change6_3"><path d="M 569.289062 447.292969 C 538.753906 448.3125 511.164062 452.367188 481.175781 451.976562 C 477.617188 445.035156 476.671875 438.59375 476.800781 431.902344 C 477.097656 416.199219 484.542969 410.945312 492.5 409.78125 C 531.675781 404.054688 562.628906 399.761719 600.925781 395.578125 C 604.554688 395.183594 605.757812 393.367188 606.234375 390.703125 C 610.199219 389.105469 655.492188 387.273438 655.492188 390.289062 C 655.476562 423.316406 610.34375 448.953125 569.289062 447.292969" fill="#f56f81" fill-rule="evenodd"/></g><g id="change6_4"><path d="M 620.417969 446.007812 C 589.882812 447.03125 564.003906 452.382812 534.011719 451.996094 C 530.898438 443.960938 528.613281 438.988281 526.359375 431.503906 C 521.832031 416.46875 532.519531 412.332031 545.234375 409.78125 C 590.195312 400.761719 616.375 391.8125 664.171875 390.285156 C 672.296875 421.824219 666.1875 438.1875 620.417969 446.007812" fill="#f56f81" fill-rule="evenodd"/></g><g id="change2_8"><path d="M 636.175781 390.292969 C 626.386719 390.292969 616.433594 390.285156 606.644531 390.285156 C 609.132812 375.289062 609.957031 358.105469 609.460938 342.65625 C 606.09375 337.429688 602.765625 334.851562 601.511719 330.246094 C 600.148438 325.234375 601.773438 316.683594 602.730469 313.558594 C 601.898438 309.445312 600.820312 301.757812 600.308594 297.527344 C 608.015625 289.960938 621.804688 283.554688 636.175781 283.554688 C 650.550781 283.554688 664.339844 289.960938 672.046875 297.527344 C 669.996094 314.363281 664.625 329.964844 662.574219 346.800781 C 662.078125 362.25 661.679688 375.289062 664.171875 390.285156 C 654.382812 390.285156 645.96875 390.292969 636.175781 390.292969" fill="#fff" fill-rule="evenodd"/></g><path d="M 6361.757812 2102.970313 C 6263.867188 2102.970313 6164.335938 2103.048438 6066.445312 2103.048438 C 6091.328125 2253.009375 6099.570312 2424.845313 6094.609375 2579.3375 C 6060.9375 2631.603125 6027.65625 2657.384375 6015.117188 2703.439063 C 6001.484375 2753.55625 6017.734375 2839.064063 6027.304688 2870.314063 C 6018.984375 2911.446875 6008.203125 2988.321875 6003.085938 3030.626563 C 6080.15625 3106.290625 6218.046875 3170.353125 6361.757812 3170.353125 C 6505.507812 3170.353125 6643.398438 3106.290625 6720.46875 3030.626563 C 6699.960938 2862.267188 6646.25 2706.251563 6625.742188 2537.892188 C 6620.78125 2383.4 6616.796875 2253.009375 6641.71875 2103.048438 C 6543.828125 2103.048438 6459.6875 2102.970313 6361.757812 2102.970313 Z M 6361.757812 2102.970313" fill="none" stroke="#2e2e6a" stroke-miterlimit="22.926" stroke-width="11.779" transform="matrix(.1 0 0 -.1 0 600.59)"/><g id="change3_11"><path d="M 670.988281 296.417969 C 684.917969 304.066406 684.847656 366.148438 684.933594 378.679688 L 672.671875 384.28125 C 665.515625 370.875 659.1875 320.09375 659.1875 320.09375 C 655.867188 308.820312 660.582031 290.707031 670.988281 296.417969" fill="#f1d190" fill-rule="evenodd"/></g><g id="change4_11"><path d="M 605.414062 391.03125 L 665.171875 391.03125 L 665.171875 385.039062 L 605.414062 385.039062 L 605.414062 391.03125" fill="#2e2e6a" fill-rule="evenodd"/></g><path d="M 6477.070312 2542.4625 C 6477.070312 2542.4625 6344.882812 2581.759375 6166.25 2596.05625" fill="none" stroke="#2e2e6a" stroke-miterlimit="22.926" stroke-width="11.779" transform="matrix(.1 0 0 -.1 0 600.59)"/><g id="change4_12"><path d="M 621.53125 215.539062 C 626.433594 206.980469 646.269531 205.941406 654.449219 208.648438 C 670.96875 214.109375 673.328125 222.613281 686.621094 236.464844 C 699.777344 250.164062 723.128906 245.894531 732.183594 267.449219 C 738.289062 281.988281 727.160156 302.792969 710.75 302.257812 C 691.332031 301.621094 687.078125 286.6875 680.378906 285.195312 C 673.695312 283.707031 667.339844 289.046875 657.78125 284.695312 C 639.902344 276.554688 637.433594 262.417969 637.433594 262.417969 C 633.753906 260.59375 628.273438 271.496094 617.011719 270.253906 C 604.894531 268.917969 597.792969 255.773438 597.785156 246.542969 C 597.769531 227.273438 610.90625 213.984375 621.53125 215.539062" fill="#2e2e6a" fill-rule="evenodd"/></g><g id="change3_12"><path d="M 644.542969 288.601562 C 644.542969 301.167969 623.402344 301.167969 623.402344 288.601562 C 623.402344 280.992188 623.402344 275.886719 623.402344 268.273438 C 630.449219 268.273438 637.496094 256.597656 644.542969 256.597656 C 644.542969 264.207031 644.542969 280.992188 644.542969 288.601562" fill="#f1d190" fill-rule="evenodd"/></g><g id="change3_13"><path d="M 635.542969 219.492188 C 630.402344 219.265625 614.902344 218.742188 613.445312 236.761719 C 611.992188 254.777344 614.289062 260.945312 615.558594 264.359375 C 617.011719 268.273438 619.769531 273.476562 625.230469 273.910156 C 636.988281 274.847656 641.921875 270.113281 645.261719 266.867188 C 647.878906 264.332031 652.171875 257.972656 653.089844 239.921875 C 654.003906 221.867188 640.667969 219.941406 635.542969 219.492188" fill="#f1d190" fill-rule="evenodd"/></g><g id="change3_14"><path d="M 650.019531 248.390625 C 650.558594 247.21875 651.183594 246.421875 652.695312 246.203125 C 654.203125 245.988281 656.859375 246.925781 656.574219 251.148438 C 656.289062 255.371094 652.53125 258.769531 650.339844 258.117188 C 648.144531 257.46875 649.730469 249.503906 650.019531 248.390625" fill="#f1d190" fill-rule="evenodd"/></g><g id="change4_13"><path d="M 616.636719 228.519531 C 612.902344 228.925781 611.640625 239.402344 613.105469 243.710938 C 610.738281 227.289062 617.257812 215.59375 635.296875 216.546875 C 653.335938 217.503906 664.875 226.164062 657.011719 245.902344 C 637.90625 253.671875 640.453125 225.933594 616.636719 228.519531" fill="#2e2e6a" fill-rule="evenodd"/></g><g id="change6_5"><path d="M 639.144531 251.847656 C 636.777344 252.394531 635.117188 253.96875 635.441406 255.367188 C 635.765625 256.761719 637.945312 257.449219 640.3125 256.902344 C 642.675781 256.355469 644.332031 254.78125 644.011719 253.386719 C 643.6875 251.988281 641.507812 251.300781 639.144531 251.847656" fill="#f56f81" fill-rule="evenodd"/></g><g id="change4_14"><path d="M 617.597656 243.917969 C 618.566406 243.988281 619.324219 245.015625 619.285156 246.207031 C 619.25 247.402344 618.433594 248.3125 617.464844 248.238281 C 616.496094 248.167969 615.742188 247.144531 615.777344 245.949219 C 615.8125 244.757812 616.628906 243.847656 617.597656 243.917969" fill="#2e2e6a" fill-rule="evenodd"/></g><path d="M 6512.65625 3500.157813 C 6513.007812 3505.43125 6535.117188 3528.55625 6551.601562 3510.74375" fill="none" stroke="#2e2e6a" stroke-miterlimit="22.926" stroke-width="8.835" transform="matrix(.1 0 0 -.1 0 600.59)"/><g id="change4_15"><path d="M 634.304688 245.015625 C 633.335938 244.960938 632.449219 245.878906 632.328125 247.066406 C 632.210938 248.253906 632.898438 249.261719 633.871094 249.320312 C 634.839844 249.375 635.722656 248.457031 635.84375 247.269531 C 635.964844 246.082031 635.273438 245.070312 634.304688 245.015625" fill="#2e2e6a" fill-rule="evenodd"/></g><path d="M 6220.9375 3604.728125 C 6259.414062 3560.235938 6231.835938 3476.329688 6224.960938 3458.7125 C 6218.125 3441.095313 6244.804688 3442.189063 6244.804688 3442.189063" fill="none" stroke="#2e2e6a" stroke-miterlimit="22.926" stroke-width="11.779" transform="matrix(.1 0 0 -.1 0 600.59)"/><path d="M 6196.640625 3398.634375 C 6221.171875 3401.99375 6232.265625 3395.5875 6287.460938 3396.446875" fill="none" stroke="#2e2e6a" stroke-miterlimit="22.926" stroke-width="11.779" transform="matrix(.1 0 0 -.1 0 600.59)"/><path d="M 6303.789062 3624.142188 C 6303.789062 3624.142188 6331.015625 3634.80625 6364.414062 3606.642188" fill="none" stroke="#2e2e6a" stroke-miterlimit="22.926" stroke-width="11.779" transform="matrix(.1 0 0 -.1 0 600.59)"/><path d="M 6211.171875 3616.05625 C 6211.171875 3616.05625 6185.585938 3630.314063 6148.710938 3606.876563" fill="none" stroke="#2e2e6a" stroke-miterlimit="22.926" stroke-width="11.779" transform="matrix(.1 0 0 -.1 0 600.59)"/><path d="M 6285.625 3262.501563 C 6339.765625 3262.696875 6410.976562 3284.49375 6470.390625 3362.071875" fill="none" stroke="#2e2e6a" stroke-miterlimit="22.926" stroke-width="11.779" transform="matrix(.1 0 0 -.1 0 600.59)"/><path d="M 6257.226562 3862.540625 C 6343.28125 3923.282813 6545.703125 3953.634375 6743.085938 3822.071875 C 6940.46875 3690.470313 6905.039062 3579.142188 7163.125 3538.634375" fill="none" stroke="#2e2e6a" stroke-miterlimit="22.926" stroke-width="11.779" transform="matrix(.1 0 0 -.1 0 600.59)"/><g id="change6_6"><path d="M 570.105469 440.496094 C 583.847656 488.996094 587.867188 514.039062 597.65625 556.21875 L 576.917969 557.203125 C 559.878906 515.867188 548.6875 490.179688 530.121094 441.941406 L 570.105469 440.496094" fill="#f56f81" fill-rule="evenodd"/></g><g id="change3_15"><path d="M 576.78125 362.015625 C 558.792969 343.484375 546.378906 336.042969 535.046875 325.445312 C 534.453125 325.566406 532.578125 325.796875 528.574219 329.550781 C 535.09375 342.609375 563.882812 382.179688 580.1875 380.671875 C 581.140625 374.195312 581.511719 366.886719 576.78125 362.015625" fill="#f1d190" fill-rule="evenodd"/></g><g clip-path="url(#b)" id="change4_17"><path d="M 606.90625 590.6875 L 581.84375 600.589844 L 578.742188 594.976562 C 580.710938 596.820312 599.203125 589.515625 601.296875 586.527344 L 603.835938 582.910156 L 606.90625 590.6875" fill="#2e2e6a" fill-rule="evenodd"/></g><g clip-path="url(#c)" id="change4_16"><path d="M 581.84375 600.589844 L 568.125 600.589844 C 568.125 600.589844 567.300781 598.699219 569.878906 597.859375 L 578.742188 594.976562 L 581.84375 600.589844" fill="#2e2e6a" fill-rule="evenodd"/></g><path d="M 6547.890625 2096.251563 C 6529.921875 1786.017188 6278.164062 1664.65 5621.757812 1682.61875 C 5459.921875 1606.173438 5918.476562 441.798438 5918.476562 441.798438" fill="none" stroke="#fff" stroke-miterlimit="22.926" stroke-width="11.779" transform="matrix(.1 0 0 -.1 0 600.59)"/><path d="M 5773.867188 1594.923438 C 5727.617188 1641.759375 5694.53125 1752.501563 5635.117188 1735.392188 C 5575.703125 1718.321875 5696.289062 1609.80625 5675.898438 1566.759375 C 5655.546875 1523.673438 5618.085938 1614.376563 5589.179688 1638.165625" fill="none" stroke="#2e2e6a" stroke-miterlimit="22.926" stroke-width="11.779" transform="matrix(.1 0 0 -.1 0 600.59)"/><g id="change3_16"><path d="M 535.046875 325.445312 C 530.164062 319.539062 523.074219 319.28125 520.324219 320.925781 L 518.265625 322.15625 C 518.265625 322.15625 512.050781 322.015625 511.367188 322.195312 C 510.683594 322.375 507.648438 321.773438 505.203125 321.675781 C 504.089844 320.097656 502.152344 315.734375 499.101562 316.113281 C 498.808594 316.34375 498.59375 317.273438 498.59375 317.273438 C 498.042969 316.59375 495.300781 314.847656 495.835938 317.253906 C 494.535156 318.113281 495.648438 318.945312 497.921875 322.140625 C 499.21875 323.964844 500.160156 325.707031 500.160156 325.707031 L 502.816406 329.117188 C 502.816406 329.117188 508.375 331.902344 509.148438 332.0625 C 509.921875 332.222656 514.699219 333.675781 515.929688 333.78125 C 518.363281 333.984375 530.960938 334.820312 532.335938 335.039062 C 533.625 332.960938 534.472656 326.523438 535.046875 325.445312" fill="#f1d190" fill-rule="evenodd"/></g><path d="M 4953.59375 2828.829688 L 5019.335938 2727.970313" fill="none" stroke="#2e2e6a" stroke-miterlimit="22.926" stroke-width="11.779" transform="matrix(.1 0 0 -.1 0 600.59)"/><path d="M 4986.835938 2829.571875 L 5030.820312 2756.798438 L 5152.8125 2738.0875" fill="none" stroke="#2e2e6a" stroke-miterlimit="22.926" stroke-width="11.779" transform="matrix(.1 0 0 -.1 0 600.59)"/><g id="change3_17"><path d="M 526.800781 320.558594 C 526.132812 319.773438 521.339844 318.90625 520.496094 318.839844 C 519.648438 318.773438 515.761719 318.039062 514.433594 317.144531 C 513.105469 316.246094 510.707031 315.9375 509.730469 315.980469 C 508.976562 316.6875 510.953125 320.054688 512.960938 320.824219 C 514.964844 321.589844 516.558594 321.746094 517.550781 322.25 C 518.542969 322.753906 519.347656 324.09375 519.347656 324.09375 L 530.074219 324.15625 C 530.078125 324.152344 527.179688 321.003906 526.800781 320.558594" fill="#f1d190" fill-rule="evenodd"/></g><g id="change3_18"><path d="M 676.074219 365.628906 C 694.066406 347.097656 706.480469 339.652344 717.8125 329.054688 C 718.402344 329.179688 720.277344 329.40625 724.285156 333.160156 C 717.761719 346.222656 688.976562 385.789062 672.671875 384.28125 C 671.714844 377.804688 671.347656 370.496094 676.074219 365.628906" fill="#f1d190" fill-rule="evenodd"/></g><g id="change3_19"><path d="M 717.8125 329.054688 C 722.691406 323.152344 729.785156 322.890625 732.535156 324.535156 L 734.59375 325.769531 C 734.59375 325.769531 740.808594 325.625 741.492188 325.804688 C 742.175781 325.984375 745.207031 325.382812 747.652344 325.285156 C 748.769531 323.707031 750.703125 319.34375 753.753906 319.726562 C 754.050781 319.953125 754.261719 320.886719 754.261719 320.886719 C 754.816406 320.203125 757.554688 318.457031 757.023438 320.863281 C 758.324219 321.722656 757.207031 322.554688 754.9375 325.75 C 753.640625 327.574219 752.695312 329.316406 752.695312 329.316406 L 750.042969 332.730469 C 750.042969 332.730469 744.480469 335.511719 743.707031 335.671875 C 742.933594 335.832031 738.15625 337.289062 736.925781 337.390625 C 734.492188 337.597656 721.894531 338.429688 720.523438 338.648438 C 719.230469 336.570312 718.386719 330.136719 717.8125 329.054688" fill="#f1d190" fill-rule="evenodd"/></g><path d="M 7574.960938 2792.696875 L 7509.21875 2691.876563" fill="none" stroke="#2e2e6a" stroke-miterlimit="22.926" stroke-width="11.779" transform="matrix(.1 0 0 -.1 0 600.59)"/><path d="M 7541.71875 2793.478125 L 7497.734375 2720.704688 L 7375.742188 2701.99375" fill="none" stroke="#2e2e6a" stroke-miterlimit="22.926" stroke-width="11.779" transform="matrix(.1 0 0 -.1 0 600.59)"/><g id="change3_20"><path d="M 726.058594 324.167969 C 726.726562 323.382812 731.515625 322.519531 732.359375 322.449219 C 733.207031 322.382812 737.097656 321.648438 738.421875 320.753906 C 739.75 319.859375 742.152344 319.546875 743.128906 319.59375 C 743.878906 320.296875 741.902344 323.667969 739.898438 324.433594 C 737.890625 325.199219 736.300781 325.359375 735.304688 325.863281 C 734.3125 326.367188 733.507812 327.707031 733.507812 327.707031 L 722.785156 327.765625 C 722.777344 327.765625 725.675781 324.613281 726.058594 324.167969" fill="#f1d190" fill-rule="evenodd"/></g><g clip-path="url(#d)"><path d="M 7353.242188 12.892188 C 7269.609375 253.360938 7220.859375 399.728125 7220.859375 399.728125" fill="none" stroke="#8fb1ed" stroke-miterlimit="22.926" stroke-width="11.779" transform="matrix(.1 0 0 -.1 0 600.59)"/></g><g clip-path="url(#e)"><path d="M 7220.859375 399.728125 L 7067.5 399.728125 L 7269.609375 19.728125 L 7353.242188 12.892188" fill="none" stroke="#8fb1ed" stroke-miterlimit="22.926" stroke-width="11.779" transform="matrix(.1 0 0 -.1 0 600.59)"/></g><g clip-path="url(#f)"><path d="M 6018.515625 12.892188 C 6102.1875 253.360938 6150.976562 399.728125 6150.976562 399.728125" fill="none" stroke="#8fb1ed" stroke-miterlimit="22.926" stroke-width="11.779" transform="matrix(.1 0 0 -.1 0 600.59)"/></g><g clip-path="url(#g)"><path d="M 6150.976562 399.728125 L 6304.296875 399.728125 L 6102.1875 19.728125 L 6018.515625 12.892188" fill="none" stroke="#8fb1ed" stroke-miterlimit="22.926" stroke-width="11.779" transform="matrix(.1 0 0 -.1 0 600.59)"/></g><g clip-path="url(#h)"><path d="M 7500.625 2162.189063 C 7309.492188 2171.251563 6783.046875 2154.220313 6631.5625 2146.251563 C 6480.078125 2138.282813 6312.617188 1994.767188 6177.070312 1683.790625 C 6041.523438 1372.853125 5838.242188 515.9 6005.664062 380.353125 C 6173.085938 244.80625 7082.539062 320.665625 7305.3125 380.353125 C 7528.085938 440.040625 7624.257812 779.025 7696.015625 1058.0875 C 7767.773438 1337.110938 8052.8125 2136.095313 7500.625 2162.189063 Z M 7500.625 2162.189063" fill="none" stroke="#8fb1ed" stroke-miterlimit="22.926" stroke-width="11.779" transform="matrix(.1 0 0 -.1 0 600.59)"/></g><g id="change1_3"><path d="M 735.355469 421.320312 C 721.953125 420.683594 685.042969 421.878906 674.421875 422.4375 C 663.800781 422.996094 652.058594 433.058594 642.554688 454.859375 C 633.054688 476.664062 619.078125 534.804688 630.816406 544.308594 C 642.554688 553.8125 706.320312 548.492188 721.941406 544.308594 C 737.5625 540.121094 744.304688 516.355469 749.335938 496.789062 C 754.363281 477.222656 774.074219 423.148438 735.355469 421.320312" fill="#e6e7f5" fill-rule="evenodd"/></g><g id="change2_9"><path d="M 798.703125 542.109375 C 801.152344 514.546875 805.789062 483.90625 813.253906 460.964844 C 824.996094 424.855469 837.683594 411.21875 837.683594 411.21875 C 837.683594 411.21875 843.070312 438.417969 832.8125 478.664062 C 825.679688 506.660156 817.949219 528.234375 813.765625 542.109375 L 798.703125 542.109375" fill="#fff" fill-rule="evenodd"/></g><g clip-path="url(#i)"><path d="M 7987.03125 584.80625 C 8011.523438 860.43125 8057.890625 1166.8375 8132.539062 1396.251563 C 8249.960938 1757.345313 8376.835938 1893.7125 8376.835938 1893.7125 C 8376.835938 1893.7125 8430.703125 1621.720313 8328.125 1219.259375 C 8256.796875 939.298438 8179.492188 723.55625 8137.65625 584.80625 Z M 7987.03125 584.80625" fill="none" stroke="#8fb1ed" stroke-miterlimit="22.926" stroke-width="11.779" transform="matrix(.1 0 0 -.1 0 600.59)"/></g><g clip-path="url(#j)"><path d="M 8376.835938 1893.7125 C 8376.835938 1893.7125 8094.84375 1195.275 8100.742188 821.798438" fill="none" stroke="#8fb1ed" stroke-miterlimit="22.926" stroke-width="11.779" transform="matrix(.1 0 0 -.1 0 600.59)"/></g><g id="change2_10"><path d="M 788.734375 542.109375 C 786.578125 530.839844 783.992188 520.125 780.929688 510.707031 C 769.183594 474.597656 756.5 460.964844 756.5 460.964844 C 756.5 460.964844 751.113281 488.160156 761.367188 528.40625 C 762.578125 533.160156 763.808594 537.730469 765.035156 542.109375 L 788.734375 542.109375" fill="#fff" fill-rule="evenodd"/></g><path d="M 7887.34375 584.80625 C 7865.78125 697.501563 7839.921875 804.65 7809.296875 898.829688 C 7691.835938 1259.923438 7565 1396.251563 7565 1396.251563 C 7565 1396.251563 7511.132812 1124.298438 7613.671875 721.8375 C 7625.78125 674.298438 7638.085938 628.595313 7650.351562 584.80625 Z M 7887.34375 584.80625" fill="none" stroke="#8fb1ed" stroke-miterlimit="22.926" stroke-width="11.779" transform="matrix(.1 0 0 -.1 0 600.59)"/><g id="change2_11"><path d="M 806.847656 542.109375 C 812.527344 505.6875 817.695312 447.855469 813.414062 407.554688 C 808.890625 364.960938 807.382812 346.21875 807.382812 346.21875 C 807.382812 346.21875 792.304688 376.035156 790.796875 422.890625 C 789.285156 469.746094 788.53125 501.265625 787.023438 512.339844 C 786.101562 519.136719 786.308594 532.664062 786.609375 542.109375 L 806.847656 542.109375" fill="#fff" fill-rule="evenodd"/></g><g clip-path="url(#k)"><path d="M 8068.476562 584.80625 C 8125.273438 949.025 8176.953125 1527.345313 8134.140625 1930.353125 C 8088.90625 2356.290625 8073.828125 2543.7125 8073.828125 2543.7125 C 8073.828125 2543.7125 7923.046875 2245.548438 7907.96875 1776.99375 C 7892.851562 1308.439063 7885.3125 993.24375 7870.234375 882.501563 C 7861.015625 814.532813 7863.085938 679.259375 7866.09375 584.80625 Z M 8068.476562 584.80625" fill="none" stroke="#8fb1ed" stroke-miterlimit="22.926" stroke-width="11.779" transform="matrix(.1 0 0 -.1 0 600.59)"/></g><g id="change2_12"><path d="M 775.300781 542.109375 C 769.925781 509.761719 765.363281 461.40625 769.460938 427.269531 C 773.984375 389.566406 775.492188 372.980469 775.492188 372.980469 C 775.492188 372.980469 790.574219 399.371094 792.082031 440.84375 C 793.589844 482.3125 794.34375 510.210938 795.851562 520.015625 C 796.628906 525.066406 796.605469 534.320312 796.398438 542.109375 L 775.300781 542.109375" fill="#fff" fill-rule="evenodd"/></g><path d="M 7753.007812 584.80625 C 7699.257812 908.282813 7653.632812 1391.8375 7694.609375 1733.204688 C 7739.84375 2110.235938 7754.921875 2276.095313 7754.921875 2276.095313 C 7754.921875 2276.095313 7905.742188 2012.189063 7920.820312 1597.4625 C 7935.898438 1182.775 7943.4375 903.790625 7958.515625 805.74375 C 7966.289062 755.235938 7966.054688 662.696875 7963.984375 584.80625 Z M 7753.007812 584.80625" fill="none" stroke="#8fb1ed" stroke-miterlimit="22.926" stroke-width="11.779" transform="matrix(.1 0 0 -.1 0 600.59)"/><path d="M 7754.921875 2276.095313 C 7817.304688 1717.384375 7841.835938 1491.290625 7825.585938 1195.040625 C 7812.773438 962.228125 7856.40625 749.728125 7887.65625 584.80625" fill="none" stroke="#8fb1ed" stroke-miterlimit="22.926" stroke-width="11.779" transform="matrix(.1 0 0 -.1 0 600.59)"/><g clip-path="url(#l)"><path d="M 8073.828125 2543.7125 C 8073.828125 2543.7125 8056.875 1695.11875 8041.132812 1302.853125 C 8030.78125 1044.767188 8041.210938 781.798438 8007.070312 584.80625" fill="none" stroke="#8fb1ed" stroke-miterlimit="22.926" stroke-width="11.779" transform="matrix(.1 0 0 -.1 0 600.59)"/></g><path d="M 7565 1396.251563 C 7565 1396.251563 7635.78125 978.790625 7743.046875 584.80625" fill="none" stroke="#8fb1ed" stroke-miterlimit="22.926" stroke-width="11.779" transform="matrix(.1 0 0 -.1 0 600.59)"/><g id="change1_4"><path d="M 820.953125 546.8125 C 820.195312 558.375 819.617188 581.691406 812.644531 592.480469 L 765.804688 592.480469 C 758.828125 581.691406 758.25 558.375 757.492188 546.8125 L 755.394531 546.8125 C 755.03125 546.8125 754.734375 546.515625 754.734375 546.148438 L 754.734375 541.6875 C 754.734375 541.320312 755.03125 541.027344 755.394531 541.027344 L 823.054688 541.027344 C 823.417969 541.027344 823.714844 541.320312 823.714844 541.6875 L 823.714844 546.148438 C 823.714844 546.515625 823.417969 546.8125 823.054688 546.8125 L 820.953125 546.8125" fill="#e6e7f5" fill-rule="evenodd"/></g><g clip-path="url(#m)"><path d="M 4623.828125 229.3375 C 4707.5 469.767188 4756.289062 616.134375 4756.289062 616.134375" fill="none" stroke="#8fb1ed" stroke-miterlimit="22.926" stroke-width="11.779" transform="matrix(.1 0 0 -.1 0 600.59)"/></g><g clip-path="url(#n)"><path d="M 4756.289062 616.134375 L 4909.609375 616.134375 L 4707.5 236.134375 L 4623.828125 229.3375" fill="none" stroke="#8fb1ed" stroke-miterlimit="22.926" stroke-width="11.779" transform="matrix(.1 0 0 -.1 0 600.59)"/></g><path d="M 5382.851562 1363.204688 C 5272.539062 1669.9625 5242.890625 1715.860938 5259.023438 1795.353125 C 5285.3125 1924.80625 5620.703125 1929.18125 6178.59375 2059.18125" fill="none" stroke="#2e2e6a" stroke-miterlimit="22.926" stroke-width="11.779" transform="matrix(.1 0 0 -.1 0 600.59)"/></g></svg>